<svg width="200" height="200" viewBox="0 0 200 200" fill="none" xmlns="http://www.w3.org/2000/svg">
<rect x="45.5" y="45.5" width="109" height="109" rx="54.5" stroke="#1E2A78" stroke-width="3"/>
<rect opacity="0.5" x="10.6855" y="10.6853" width="178.629" height="178.629" rx="89.3147" stroke="#34C759"/>
<g filter="url(#filter0_d_2026_870)">
<rect x="56" y="56" width="88" height="88" rx="44" fill="white" shape-rendering="crispEdges"/>
<path d="M104.667 93.9998L107.734 97.0665C108.252 97.5747 109.082 97.5747 109.6 97.0665L112.4 94.2665C112.908 93.748 112.908 92.9183 112.4 92.3998L109.334 89.3332M112 86.6665L99.2002 99.4665" stroke="#1E2A78" stroke-width="2.66667" stroke-linecap="round" stroke-linejoin="round"/>
<path d="M86.667 104.667C86.667 108.714 89.9529 112 94.0003 112C98.0477 112 101.334 108.714 101.334 104.667C101.334 100.619 98.0477 97.3333 94.0003 97.3333C89.9529 97.3333 86.667 100.619 86.667 104.667V104.667" stroke="#1E2A78" stroke-width="2.66667" stroke-linecap="round" stroke-linejoin="round"/>
</g>
<defs>
<filter id="filter0_d_2026_870" x="24" y="40" width="152" height="152" filterUnits="userSpaceOnUse" color-interpolation-filters="sRGB">
<feFlood flood-opacity="0" result="BackgroundImageFix"/>
<feColorMatrix in="SourceAlpha" type="matrix" values="0 0 0 0 0 0 0 0 0 0 0 0 0 0 0 0 0 0 127 0" result="hardAlpha"/>
<feOffset dy="16"/>
<feGaussianBlur stdDeviation="16"/>
<feComposite in2="hardAlpha" operator="out"/>
<feColorMatrix type="matrix" values="0 0 0 0 0.117647 0 0 0 0 0.164706 0 0 0 0 0.470588 0 0 0 0.12 0"/>
<feBlend mode="normal" in2="BackgroundImageFix" result="effect1_dropShadow_2026_870"/>
<feBlend mode="normal" in="SourceGraphic" in2="effect1_dropShadow_2026_870" result="shape"/>
</filter>
</defs>
</svg>
