<svg width="30" height="30" viewBox="0 0 30 30" fill="none" xmlns="http://www.w3.org/2000/svg">
<path d="M17 5C17 5 19.2 5.2 22 8C24.8 10.8 25 13 25 13" stroke="#929292" stroke-width="1.5" stroke-linecap="round"/>
<path d="M17.207 8.53564C17.207 8.53564 18.197 8.81849 19.6819 10.3034C21.1668 11.7883 21.4497 12.7783 21.4497 12.7783" stroke="#929292" stroke-width="1.5" stroke-linecap="round"/>
<path d="M13.0376 8.31617L13.6866 9.4791C14.2723 10.5286 14.0372 11.9053 13.1147 12.8278C13.1147 12.8278 11.9958 13.9467 14.0245 15.9755C16.0532 18.0042 17.1722 16.8853 17.1722 16.8853C18.0947 15.9628 19.4714 15.7277 20.5209 16.3134L21.6838 16.9624C23.2686 17.8468 23.4557 20.0692 22.0628 21.4622C21.2258 22.2992 20.2004 22.9505 19.0669 22.9934C17.1588 23.0658 13.9183 22.5829 10.6677 19.3323C7.41713 16.0817 6.93421 12.8412 7.00655 10.9331C7.04952 9.7996 7.7008 8.77423 8.53781 7.93723C9.93076 6.54428 12.1532 6.73144 13.0376 8.31617Z" stroke="#929292" stroke-width="1.5" stroke-linecap="round"/>
</svg>
