<svg width="30" height="30" viewBox="0 0 30 30" fill="none" xmlns="http://www.w3.org/2000/svg">
<path fill-rule="evenodd" clip-rule="evenodd" d="M25 15C25 20.5228 20.5228 25 15 25C13.4003 25 11.8884 24.6244 10.5475 23.9565C10.1912 23.7791 9.78393 23.72 9.39939 23.8229L7.17335 24.4185C6.20701 24.677 5.32295 23.793 5.58151 22.8267L6.17712 20.6006C6.28001 20.2161 6.22094 19.8088 6.04346 19.4525C5.37562 18.1116 5 16.5997 5 15C5 9.47715 9.47715 5 15 5C20.5228 5 25 9.47715 25 15ZM18.5303 12.4697C18.8232 12.7626 18.8232 13.2374 18.5303 13.5303L14.5303 17.5303C14.2417 17.819 13.7751 17.8238 13.4806 17.541L11.4806 15.621C11.1818 15.3342 11.1721 14.8594 11.459 14.5606C11.7458 14.2618 12.2206 14.2521 12.5194 14.539L13.9893 15.9501L17.4697 12.4697C17.7626 12.1768 18.2374 12.1768 18.5303 12.4697Z" fill="#F7F8F9"/>
</svg>
