<svg width="30" height="30" viewBox="0 0 30 30" fill="none" xmlns="http://www.w3.org/2000/svg">
<path d="M15 25C20.5228 25 25 20.5228 25 15C25 9.47715 20.5228 5 15 5C9.47715 5 5 9.47715 5 15C5 16.5997 5.37562 18.1116 6.04346 19.4525C6.22094 19.8088 6.28001 20.2161 6.17712 20.6006L5.58151 22.8267C5.32295 23.793 6.20701 24.677 7.17335 24.4185L9.39939 23.8229C9.78393 23.72 10.1912 23.7791 10.5475 23.9565C11.8884 24.6244 13.4003 25 15 25Z" stroke="#929292" stroke-width="1.5"/>
<path d="M12 15.08L14 17L18 13" stroke="#929292" stroke-width="1.5" stroke-linecap="round" stroke-linejoin="round"/>
</svg>
