<svg width="30" height="30" viewBox="0 0 30 30" fill="none" xmlns="http://www.w3.org/2000/svg">
<path d="M9 11C9 8.17157 9 6.75736 9.87868 5.87868C10.7574 5 12.1716 5 15 5C17.8284 5 19.2426 5 20.1213 5.87868C21 6.75736 21 8.17157 21 11V19C21 21.8284 21 23.2426 20.1213 24.1213C19.2426 25 17.8284 25 15 25C12.1716 25 10.7574 25 9.87868 24.1213C9 23.2426 9 21.8284 9 19V11Z" stroke="#929292" stroke-width="1.5"/>
<path d="M21 22.5C22.4001 22.5 23.1002 22.5 23.635 22.2275C24.1054 21.9878 24.4878 21.6054 24.7275 21.135C25 20.6002 25 19.9001 25 18.5V11.5C25 10.0999 25 9.3998 24.7275 8.86502C24.4878 8.39462 24.1054 8.01217 23.635 7.77248C23.1002 7.5 22.4001 7.5 21 7.5" stroke="#929292" stroke-width="1.5"/>
<path d="M9 22.5C7.59987 22.5 6.8998 22.5 6.36502 22.2275C5.89462 21.9878 5.51217 21.6054 5.27248 21.135C5 20.6002 5 19.9001 5 18.5V11.5C5 10.0999 5 9.3998 5.27248 8.86502C5.51217 8.39462 5.89462 8.01217 6.36502 7.77248C6.8998 7.5 7.59987 7.5 9 7.5" stroke="#929292" stroke-width="1.5"/>
</svg>
